<svg width="223" height="42" viewBox="0 0 223 42" fill="none" xmlns="http://www.w3.org/2000/svg">
<path fill-rule="evenodd" clip-rule="evenodd" d="M29.8457 4.31756C26.5978 -1.43918 18.4022 -1.43919 15.1543 4.31756L1.12723 29.1797C-2.09576 34.8922 1.97683 42 8.47296 42H36.527C43.0232 42 47.0958 34.8922 43.8728 29.1797L29.8457 4.31756ZM28.7741 21.506C26 16.5891 19 16.5891 16.2259 21.506C13.4731 26.3852 16.9516 32.456 22.5 32.456C28.0484 32.456 31.5269 26.3852 28.7741 21.506Z" fill="#1A1A1A"/>
<path d="M70.36 34.36C68.776 34.36 67.348 33.964 66.076 33.172C64.804 32.38 63.808 31.3 63.088 29.932C62.368 28.564 62.008 27.028 62.008 25.324C62.008 23.596 62.368 22.048 63.088 20.68C63.808 19.312 64.804 18.232 66.076 17.44C67.348 16.648 68.776 16.252 70.36 16.252C71.608 16.252 72.724 16.504 73.708 17.008C74.692 17.512 75.472 18.22 76.048 19.132C76.648 20.02 76.972 21.028 77.02 22.156V28.42C76.972 29.572 76.648 30.592 76.048 31.48C75.472 32.368 74.692 33.076 73.708 33.604C72.724 34.108 71.608 34.36 70.36 34.36ZM71.224 30.004C72.544 30.004 73.612 29.572 74.428 28.708C75.244 27.82 75.652 26.68 75.652 25.288C75.652 24.376 75.46 23.572 75.076 22.876C74.716 22.156 74.2 21.604 73.528 21.22C72.88 20.812 72.112 20.608 71.224 20.608C70.36 20.608 69.592 20.812 68.92 21.22C68.272 21.604 67.756 22.156 67.372 22.876C67.012 23.572 66.832 24.376 66.832 25.288C66.832 26.224 67.012 27.052 67.372 27.772C67.756 28.468 68.272 29.02 68.92 29.428C69.592 29.812 70.36 30.004 71.224 30.004ZM75.4 34V29.32L76.156 25.072L75.4 20.896V16.612H80.08V34H75.4ZM95.9521 34V24.028C95.9521 22.996 95.6281 22.156 94.9801 21.508C94.3321 20.86 93.4921 20.536 92.4601 20.536C91.7881 20.536 91.1881 20.68 90.6601 20.968C90.1321 21.256 89.7121 21.664 89.4001 22.192C89.1121 22.72 88.9681 23.332 88.9681 24.028L87.1321 23.092C87.1321 21.724 87.4201 20.536 87.9961 19.528C88.5961 18.496 89.4121 17.692 90.4441 17.116C91.5001 16.54 92.6881 16.252 94.0081 16.252C95.2801 16.252 96.4201 16.576 97.4281 17.224C98.4361 17.848 99.2281 18.676 99.8041 19.708C100.38 20.716 100.668 21.808 100.668 22.984V34H95.9521ZM84.2521 34V16.612H88.9681V34H84.2521ZM111.739 34.36C110.155 34.36 108.727 33.964 107.455 33.172C106.183 32.38 105.187 31.3 104.467 29.932C103.747 28.564 103.387 27.028 103.387 25.324C103.387 23.596 103.747 22.048 104.467 20.68C105.187 19.312 106.183 18.232 107.455 17.44C108.727 16.648 110.155 16.252 111.739 16.252C112.987 16.252 114.103 16.504 115.087 17.008C116.071 17.512 116.851 18.22 117.427 19.132C118.027 20.02 118.351 21.028 118.399 22.156V28.42C118.351 29.572 118.027 30.592 117.427 31.48C116.851 32.368 116.071 33.076 115.087 33.604C114.103 34.108 112.987 34.36 111.739 34.36ZM112.603 30.004C113.923 30.004 114.991 29.572 115.807 28.708C116.623 27.82 117.031 26.68 117.031 25.288C117.031 24.376 116.839 23.572 116.455 22.876C116.095 22.156 115.579 21.604 114.907 21.22C114.259 20.812 113.491 20.608 112.603 20.608C111.739 20.608 110.971 20.812 110.299 21.22C109.651 21.604 109.135 22.156 108.751 22.876C108.391 23.572 108.211 24.376 108.211 25.288C108.211 26.224 108.391 27.052 108.751 27.772C109.135 28.468 109.651 29.02 110.299 29.428C110.971 29.812 111.739 30.004 112.603 30.004ZM116.779 34V29.32L117.535 25.072L116.779 20.896V16.612H121.459V34H116.779ZM125.631 34V7.972H130.347V34H125.631ZM142.698 34.36C140.946 34.36 139.362 33.964 137.946 33.172C136.554 32.356 135.438 31.264 134.598 29.896C133.782 28.504 133.374 26.956 133.374 25.252C133.374 23.548 133.782 22.024 134.598 20.68C135.414 19.312 136.53 18.232 137.946 17.44C139.362 16.624 140.934 16.216 142.662 16.216C144.438 16.216 146.022 16.624 147.414 17.44C148.83 18.232 149.946 19.312 150.762 20.68C151.578 22.024 151.986 23.548 151.986 25.252C151.986 26.956 151.578 28.504 150.762 29.896C149.946 31.264 148.83 32.356 147.414 33.172C146.022 33.964 144.45 34.36 142.698 34.36ZM142.662 29.968C143.55 29.968 144.33 29.776 145.002 29.392C145.698 28.984 146.226 28.432 146.586 27.736C146.97 27.016 147.162 26.2 147.162 25.288C147.162 24.376 146.97 23.572 146.586 22.876C146.202 22.18 145.674 21.64 145.002 21.256C144.33 20.848 143.55 20.644 142.662 20.644C141.798 20.644 141.03 20.848 140.358 21.256C139.686 21.64 139.158 22.18 138.774 22.876C138.39 23.572 138.198 24.376 138.198 25.288C138.198 26.2 138.39 27.016 138.774 27.736C139.158 28.432 139.686 28.984 140.358 29.392C141.03 29.776 141.798 29.968 142.662 29.968ZM162.294 41.704C160.446 41.704 158.814 41.368 157.398 40.696C155.982 40.048 154.854 39.124 154.014 37.924L157.002 34.936C157.674 35.728 158.418 36.328 159.234 36.736C160.074 37.168 161.082 37.384 162.258 37.384C163.722 37.384 164.874 37.012 165.714 36.268C166.578 35.524 167.01 34.492 167.01 33.172V28.816L167.802 25L167.046 21.184V16.612H171.726V33.1C171.726 34.828 171.318 36.328 170.502 37.6C169.71 38.896 168.606 39.904 167.19 40.624C165.774 41.344 164.142 41.704 162.294 41.704ZM162.078 33.532C160.518 33.532 159.114 33.16 157.866 32.416C156.618 31.648 155.634 30.604 154.914 29.284C154.218 27.964 153.87 26.488 153.87 24.856C153.87 23.224 154.218 21.76 154.914 20.464C155.634 19.168 156.618 18.148 157.866 17.404C159.114 16.636 160.518 16.252 162.078 16.252C163.374 16.252 164.514 16.504 165.498 17.008C166.506 17.512 167.298 18.208 167.874 19.096C168.45 19.96 168.762 20.98 168.81 22.156V27.628C168.762 28.78 168.438 29.812 167.838 30.724C167.262 31.612 166.47 32.308 165.462 32.812C164.478 33.292 163.35 33.532 162.078 33.532ZM163.014 29.248C163.878 29.248 164.622 29.068 165.246 28.708C165.894 28.324 166.398 27.808 166.758 27.16C167.118 26.488 167.298 25.732 167.298 24.892C167.298 24.028 167.118 23.272 166.758 22.624C166.398 21.976 165.894 21.472 165.246 21.112C164.622 20.728 163.878 20.536 163.014 20.536C162.15 20.536 161.394 20.728 160.746 21.112C160.098 21.472 159.594 21.988 159.234 22.66C158.874 23.308 158.694 24.052 158.694 24.892C158.694 25.708 158.874 26.452 159.234 27.124C159.594 27.772 160.098 28.288 160.746 28.672C161.394 29.056 162.15 29.248 163.014 29.248ZM180.513 34L173.997 16.612H178.749L182.997 29.248L181.557 29.284L185.913 16.612H189.333L193.689 29.284L192.249 29.248L196.497 16.612H201.249L194.769 34H191.349L186.957 21.976H188.289L183.897 34H180.513ZM213.185 34.36C211.937 34.36 210.809 34.108 209.801 33.604C208.793 33.076 207.989 32.368 207.389 31.48C206.789 30.592 206.465 29.572 206.417 28.42V22.264C206.465 21.112 206.789 20.092 207.389 19.204C208.013 18.292 208.817 17.572 209.801 17.044C210.809 16.516 211.937 16.252 213.185 16.252C214.793 16.252 216.233 16.648 217.505 17.44C218.777 18.232 219.773 19.312 220.493 20.68C221.237 22.048 221.609 23.596 221.609 25.324C221.609 27.028 221.237 28.564 220.493 29.932C219.773 31.3 218.777 32.38 217.505 33.172C216.233 33.964 214.793 34.36 213.185 34.36ZM203.537 41.272V16.612H208.253V21.184L207.461 25.396L208.217 29.608V41.272H203.537ZM212.357 30.004C213.221 30.004 213.989 29.812 214.661 29.428C215.333 29.02 215.849 28.468 216.209 27.772C216.593 27.052 216.785 26.224 216.785 25.288C216.785 24.376 216.593 23.572 216.209 22.876C215.849 22.156 215.333 21.604 214.661 21.22C213.989 20.812 213.221 20.608 212.357 20.608C211.517 20.608 210.761 20.812 210.089 21.22C209.417 21.604 208.889 22.156 208.505 22.876C208.145 23.572 207.965 24.376 207.965 25.288C207.965 26.224 208.145 27.052 208.505 27.772C208.889 28.468 209.405 29.02 210.053 29.428C210.725 29.812 211.493 30.004 212.357 30.004Z" fill="#1A1A1A"/>
</svg>
